<?xml version="1.0" encoding="UTF-8"?>
<svg width="435px" height="174px" viewBox="0 0 435 174" version="1.1" xmlns="http://www.w3.org/2000/svg" xmlns:xlink="http://www.w3.org/1999/xlink">
    <!-- Generator: Sketch 52.5 (67469) - http://www.bohemiancoding.com/sketch -->
    <title>Artboard Copy</title>
    <desc>Created with Sketch.</desc>
    <g id="Artboard-Copy" stroke="none" stroke-width="1" fill="none" fill-rule="evenodd">
        <g id="Group" transform="translate(34.000000, 28.000000)">
            <path d="M3.24494718,85.5175945 L97.5945949,71.5 L100.647448,83.1089536 C94.7009877,104.485367 80.2382619,116.149126 57.2592703,118.100229 C34.2802788,120.051333 16.725387,113.947835 4.59459493,99.7897355 L3.24494718,85.5175945 Z" id="Rectangle-Copy-4" fill="#F4D38A"></path>
            <path d="M6.8975732,42 C13.104094,32.7106582 22.3445125,23.1189678 36.6883368,18.7829305 C38.0069677,18.3843176 22.6424239,-1.21637319e-12 40.1065635,-2.84217094e-14 C51.7493233,7.61572495e-13 54.7798409,6.26097683 49.1981163,18.7829305 C66.0500501,20.3753285 77.3930548,24.3174536 83.2271303,30.6093058 C89.0612059,36.9011581 93.8503607,50.5313895 97.5945949,71.5 C94.1499985,93.8410519 80.8087013,106.887173 57.5707032,110.638364 C34.3327051,114.389556 16.2241198,106.706475 3.24494718,87.5891226 C-2.07234387,68.7994065 -0.854801865,53.6030324 6.8975732,42 Z" id="Rectangle" fill="#B87846"></path>
            <g id="Group-3" transform="translate(1.094595, 0.000000)" stroke="#602E01" stroke-width="4">
                <path d="M27.2471953,22.4764378 C27.2471953,22.4764378 26.0244586,23.1682323 23.9781361,24.4582113 C18.7630556,27.7457401 8.70476229,34.9184301 4.27812649,44.4268143 C-3.76986889,61.7138548 1.84139652,85.853745 2.72880523,85.9385856 C3.39871356,86.002632 1.51159253,86.1262646 1.51159253,90.6855112 C1.51159253,105.152044 23.8574545,122.236548 59.0841654,117.199523 C94.3108762,112.162499 99.5528528,88.2145351 99.5528528,76.5413623 C99.5528528,72.1559523 96.07571,71.9987791 96.5215441,71.7623256 C97.2517477,71.3750533 96.9108074,46.1128684 83.8038523,32.319875 C71.7339763,19.618243 46.8179511,18.3061035 47.2713755,17.7815215 C48.6228468,16.2179585 49.4724326,10.8007624 49.4724326,9.5 C49.4724326,4.25329488 45.2191377,-1.13686838e-13 39.9724326,-1.13686838e-13 C34.7257275,-1.13686838e-13 30.4724326,4.25329488 30.4724326,9.5 C30.4724326,12.7258477 32.2366565,15.4360752 34.4761827,17.7815215 C35.7910965,19.1586251 31.7485986,20.2699682 27.2471953,22.4764378 Z" id="Oval"></path>
                <path d="M3.5,85.5 C17.0004133,85.6913118 33.4790861,84.3224674 52.9360185,81.3934668 C72.3929508,78.4644663 86.914278,75.166644 96.5,71.5" id="Line" stroke-linecap="square"></path>
            </g>
            <circle id="Oval" stroke="#602E01" stroke-width="4" cx="23.0945949" cy="61" r="12"></circle>
            <circle id="Oval-Copy" stroke="#602E01" stroke-width="4" cx="73.0945949" cy="54" r="12"></circle>
            <circle id="Oval" fill="#602E01" cx="23.0945949" cy="61" r="4"></circle>
            <circle id="Oval-Copy-2" fill="#602E01" cx="73.0945949" cy="54" r="4"></circle>
        </g>
        <text id="CakeBot" font-family="Futura-Medium, Futura" font-size="63" font-weight="400" fill="#FFFFFF">
            <tspan x="158.075439" y="115">CakeBot</tspan>
        </text>
    </g>
</svg>